<?xml version="1.0" encoding="utf-8"?>
<!-- Generated by IcoMoon.io -->
<svg version="1.1" xmlns="http://www.w3.org/2000/svg" xmlns:xlink="http://www.w3.org/1999/xlink" width="120" height="32" viewBox="0 0 120 32">
    <symbol id="icon-facebook" viewBox="0 0 32 32">
        <path fill="#f53838" d="M31.563 16c0 8.716-7.066 15.781-15.781 15.781s-15.781-7.066-15.781-15.781c0-8.716 7.066-15.781 15.781-15.781s15.781 7.066 15.781 15.781z"></path>
        <path fill="#fff" d="M15.781 0.219c-8.716 0-15.781 7.066-15.781 15.781s7.065 15.781 15.781 15.781c8.716 0 15.781-7.065 15.781-15.781s-7.065-15.781-15.781-15.781zM19.52 11.124h-2.372c-0.281 0-0.593 0.37-0.593 0.861v1.713h2.967l-0.449 2.443h-2.518v7.333h-2.8v-7.333h-2.54v-2.443h2.54v-1.437c0-2.061 1.43-3.737 3.393-3.737h2.372v2.599z"></path>
    </symbol>

    <symbol id="icon-instagram" viewBox="0 0 32 32">
    <path fill="#f53838" d="M31.563 16c0 8.716-7.066 15.781-15.781 15.781s-15.781-7.066-15.781-15.781c0-8.716 7.066-15.781 15.781-15.781s15.781 7.066 15.781 15.781z"></path>
    <path fill="#fff" d="M20.713 16c0 1.308-0.52 2.562-1.445 3.487s-2.179 1.445-3.487 1.445c-1.308 0-2.562-0.52-3.487-1.445s-1.444-2.179-1.444-3.487c0-0.281 0.030-0.556 0.081-0.822h-1.724v6.571c0 0.457 0.37 0.827 0.827 0.827h11.499c0.219-0 0.429-0.088 0.584-0.243s0.242-0.365 0.242-0.584v-6.571h-1.724c0.051 0.266 0.081 0.541 0.081 0.822zM15.781 19.288c0.432-0 0.859-0.085 1.258-0.251s0.761-0.408 1.067-0.713c0.305-0.305 0.547-0.668 0.713-1.067s0.25-0.827 0.25-1.259c-0-0.432-0.085-0.859-0.251-1.258s-0.408-0.761-0.713-1.067c-0.305-0.305-0.668-0.547-1.067-0.713s-0.827-0.25-1.259-0.25c-0.872 0-1.709 0.347-2.325 0.964s-0.963 1.453-0.963 2.326 0.347 1.709 0.964 2.325c0.617 0.617 1.453 0.963 2.326 0.963zM19.727 12.548h1.971c0.131 0 0.257-0.052 0.349-0.144s0.145-0.218 0.145-0.349v-1.971c0-0.131-0.052-0.257-0.145-0.35s-0.219-0.145-0.35-0.145h-1.971c-0.131 0-0.257 0.052-0.35 0.145s-0.145 0.219-0.145 0.35v1.971c0.002 0.271 0.224 0.493 0.495 0.493zM15.781 0.219c-4.186 0-8.2 1.663-11.159 4.622s-4.622 6.974-4.622 11.159c0 4.185 1.663 8.2 4.622 11.159s6.974 4.622 11.159 4.622c2.072 0 4.125-0.408 6.039-1.201s3.654-1.955 5.12-3.421c1.465-1.466 2.628-3.205 3.421-5.12s1.201-3.967 1.201-6.039-0.408-4.125-1.201-6.039c-0.793-1.915-1.955-3.654-3.421-5.12s-3.205-2.628-5.12-3.421c-1.915-0.793-3.967-1.201-6.039-1.201zM24.001 22.393c0 1.004-0.822 1.826-1.826 1.826h-12.786c-1.004 0-1.826-0.822-1.826-1.826v-12.786c0-1.004 0.822-1.826 1.826-1.826h12.786c1.004 0 1.826 0.822 1.826 1.826v12.786z"></path>
    </symbol>


    <symbol id="icon-twitter" viewBox="0 0 30 32">
        <path fill="#f53838" d="M29.5 16c0 8.146-6.604 14.75-14.75 14.75s-14.75-6.604-14.75-14.75c0-8.146 6.604-14.75 14.75-14.75s14.75 6.604 14.75 14.75z"></path>
        <path fill="#fff" d="M14.75 1.25c-8.146 0-14.75 6.604-14.75 14.75s6.604 14.75 14.75 14.75c8.146 0 14.75-6.604 14.75-14.75s-6.604-14.75-14.75-14.75zM20.75 13.333c0.006 0.126 0.008 0.252 0.008 0.375 0 3.841-2.921 8.268-8.265 8.268-1.579 0.003-3.125-0.451-4.453-1.306 0.226 0.028 0.458 0.038 0.693 0.038 1.361 0 2.614-0.463 3.608-1.243-0.606-0.012-1.193-0.212-1.679-0.574s-0.848-0.865-1.034-1.442c0.435 0.083 0.883 0.065 1.311-0.051-0.658-0.133-1.249-0.489-1.674-1.008s-0.657-1.169-0.657-1.84v-0.035c0.392 0.217 0.84 0.349 1.317 0.364-0.616-0.41-1.053-1.041-1.22-1.762s-0.052-1.479 0.321-2.119c0.73 0.897 1.64 1.631 2.671 2.155s2.161 0.824 3.316 0.883c-0.147-0.623-0.084-1.278 0.18-1.861s0.712-1.064 1.277-1.366c0.565-0.302 1.213-0.409 1.845-0.305s1.211 0.415 1.649 0.882c0.65-0.129 1.274-0.367 1.844-0.705-0.217 0.673-0.67 1.245-1.277 1.609 0.576-0.069 1.138-0.224 1.669-0.459-0.39 0.584-0.88 1.093-1.449 1.504z"></path>
    </symbol>
</svg>
